<mxfile host="app.diagrams.net" modified="2024-06-09T20:51:36.617Z" agent="Mozilla/5.0 (Windows NT 10.0; Win64; x64) AppleWebKit/537.36 (KHTML, like Gecko) Chrome/123.0.0.0 Safari/537.36 OPR/109.0.0.0" etag="04Va5a2V8TejlKs3vTah" version="24.4.13" type="device">
  <diagram id="C5RBs43oDa-KdzZeNtuy" name="Page-1">
    <mxGraphModel dx="2293" dy="1975" grid="1" gridSize="10" guides="1" tooltips="1" connect="1" arrows="1" fold="1" page="1" pageScale="1" pageWidth="827" pageHeight="1169" math="0" shadow="0">
      <root>
        <mxCell id="WIyWlLk6GJQsqaUBKTNV-0" />
        <mxCell id="WIyWlLk6GJQsqaUBKTNV-1" parent="WIyWlLk6GJQsqaUBKTNV-0" />
        <mxCell id="zkfFHV4jXpPFQw0GAbJ--0" value="Game" style="swimlane;fontStyle=2;align=center;verticalAlign=top;childLayout=stackLayout;horizontal=1;startSize=26;horizontalStack=0;resizeParent=1;resizeLast=0;collapsible=1;marginBottom=0;rounded=0;shadow=0;strokeWidth=1;" parent="WIyWlLk6GJQsqaUBKTNV-1" vertex="1">
          <mxGeometry x="-300" y="-1055" width="540" height="430" as="geometry">
            <mxRectangle x="230" y="140" width="160" height="26" as="alternateBounds" />
          </mxGeometry>
        </mxCell>
        <mxCell id="zkfFHV4jXpPFQw0GAbJ--1" value="- UnitsTab : std::vector &lt;std::shared_ptr&lt;Unit&gt;&gt;&#xa;- mousePosWindow : std::Vector2i&#xa;- activeUser : int&#xa;- activePc : int&#xa;- userTurn : bool&#xa;- manuUp : bool&#xa;- over : bool&#xa;- score : int&#xa;" style="text;align=left;verticalAlign=top;spacingLeft=4;spacingRight=4;overflow=hidden;rotatable=0;points=[[0,0.5],[1,0.5]];portConstraint=eastwest;" parent="zkfFHV4jXpPFQw0GAbJ--0" vertex="1">
          <mxGeometry y="26" width="540" height="124" as="geometry" />
        </mxCell>
        <mxCell id="zkfFHV4jXpPFQw0GAbJ--4" value="" style="line;html=1;strokeWidth=1;align=left;verticalAlign=middle;spacingTop=-1;spacingLeft=3;spacingRight=3;rotatable=0;labelPosition=right;points=[];portConstraint=eastwest;" parent="zkfFHV4jXpPFQw0GAbJ--0" vertex="1">
          <mxGeometry y="150" width="540" height="20" as="geometry" />
        </mxCell>
        <mxCell id="zkfFHV4jXpPFQw0GAbJ--5" value="+ Game()&#xa;+ GameLoop() : void&#xa;&#xa;- UpdateMousePosition( window : sf::RenderWindow&amp;) : void&#xa;- Update(window : sf::RenderWindow&amp;) : void&#xa;- RenderMenu(window : sf::RenderWindow&amp;) : void&#xa;- RenderGame(window : sf::RenderWindow&amp;) : void&#xa;- RenderOver(window : sf::RenderWindow&amp;) : void&#xa;- RenderQTE(window : sf::RenderWindow&amp;, eventinfo const : std::string&amp;, x : float, y : float ) : void&#xa;- CreateUnits() : void&#xa;- Decide(a : double, b : double) : static double &#xa;- UserTurn(window : sf::RenderWindow&amp;) : void&#xa;- PcTurn(window : sf::RenderWindow&amp;) : void&#xa;" style="text;align=left;verticalAlign=top;spacingLeft=4;spacingRight=4;overflow=hidden;rotatable=0;points=[[0,0.5],[1,0.5]];portConstraint=eastwest;" parent="zkfFHV4jXpPFQw0GAbJ--0" vertex="1">
          <mxGeometry y="170" width="540" height="260" as="geometry" />
        </mxCell>
        <mxCell id="ZZ86Lt4iELvdnzls3iAt-0" value="Unit" style="swimlane;fontStyle=2;align=center;verticalAlign=top;childLayout=stackLayout;horizontal=1;startSize=26;horizontalStack=0;resizeParent=1;resizeLast=0;collapsible=1;marginBottom=0;rounded=0;shadow=0;strokeWidth=1;" parent="WIyWlLk6GJQsqaUBKTNV-1" vertex="1">
          <mxGeometry x="-175" y="-520" width="290" height="350" as="geometry">
            <mxRectangle x="230" y="140" width="160" height="26" as="alternateBounds" />
          </mxGeometry>
        </mxCell>
        <mxCell id="ZZ86Lt4iELvdnzls3iAt-1" value="+ texture : sf::Texture&#xa;+ sprite : sf::Sprite&#xa;&#xa;- hp : int&#xa;- dmgmulti : int&#xa;- name : std::string" style="text;align=left;verticalAlign=top;spacingLeft=4;spacingRight=4;overflow=hidden;rotatable=0;points=[[0,0.5],[1,0.5]];portConstraint=eastwest;" parent="ZZ86Lt4iELvdnzls3iAt-0" vertex="1">
          <mxGeometry y="26" width="290" height="124" as="geometry" />
        </mxCell>
        <mxCell id="ZZ86Lt4iELvdnzls3iAt-2" value="" style="line;html=1;strokeWidth=1;align=left;verticalAlign=middle;spacingTop=-1;spacingLeft=3;spacingRight=3;rotatable=0;labelPosition=right;points=[];portConstraint=eastwest;" parent="ZZ86Lt4iELvdnzls3iAt-0" vertex="1">
          <mxGeometry y="150" width="290" height="20" as="geometry" />
        </mxCell>
        <mxCell id="ZZ86Lt4iELvdnzls3iAt-3" value="+ Unit( filename const  : std::string&amp;)&#xa;(virtual) + ~Unit()&#xa;+ LoadTexture( filename const :  std::string&amp;) : void&#xa;(virtual) + Init () : void&#xa;+ draw( window : sf::RenderWindow&amp; ) const : void &#xa;+ SetHp (newhp : int) : int&#xa;+ GetHp() const : int &#xa;+ GetDmgMulti() const : int &#xa;" style="text;align=left;verticalAlign=top;spacingLeft=4;spacingRight=4;overflow=hidden;rotatable=0;points=[[0,0.5],[1,0.5]];portConstraint=eastwest;" parent="ZZ86Lt4iELvdnzls3iAt-0" vertex="1">
          <mxGeometry y="170" width="290" height="180" as="geometry" />
        </mxCell>
        <mxCell id="ZZ86Lt4iELvdnzls3iAt-4" value="PcUnit" style="swimlane;fontStyle=2;align=center;verticalAlign=top;childLayout=stackLayout;horizontal=1;startSize=26;horizontalStack=0;resizeParent=1;resizeLast=0;collapsible=1;marginBottom=0;rounded=0;shadow=0;strokeWidth=1;" parent="WIyWlLk6GJQsqaUBKTNV-1" vertex="1">
          <mxGeometry x="340" y="-324" width="220" height="210" as="geometry">
            <mxRectangle x="230" y="140" width="160" height="26" as="alternateBounds" />
          </mxGeometry>
        </mxCell>
        <mxCell id="ZZ86Lt4iELvdnzls3iAt-5" value=" " style="text;align=left;verticalAlign=top;spacingLeft=4;spacingRight=4;overflow=hidden;rotatable=0;points=[[0,0.5],[1,0.5]];portConstraint=eastwest;" parent="ZZ86Lt4iELvdnzls3iAt-4" vertex="1">
          <mxGeometry y="26" width="220" height="44" as="geometry" />
        </mxCell>
        <mxCell id="ZZ86Lt4iELvdnzls3iAt-6" value="" style="line;html=1;strokeWidth=1;align=left;verticalAlign=middle;spacingTop=-1;spacingLeft=3;spacingRight=3;rotatable=0;labelPosition=right;points=[];portConstraint=eastwest;" parent="ZZ86Lt4iELvdnzls3iAt-4" vertex="1">
          <mxGeometry y="70" width="220" height="20" as="geometry" />
        </mxCell>
        <mxCell id="ZZ86Lt4iELvdnzls3iAt-7" value="+ PcUnit( filename  const : std::string)&#xa;+ Init() override  : void" style="text;align=left;verticalAlign=top;spacingLeft=4;spacingRight=4;overflow=hidden;rotatable=0;points=[[0,0.5],[1,0.5]];portConstraint=eastwest;" parent="ZZ86Lt4iELvdnzls3iAt-4" vertex="1">
          <mxGeometry y="90" width="220" height="120" as="geometry" />
        </mxCell>
        <mxCell id="ZZ86Lt4iELvdnzls3iAt-8" value="UserUnit" style="swimlane;fontStyle=2;align=center;verticalAlign=top;childLayout=stackLayout;horizontal=1;startSize=26;horizontalStack=0;resizeParent=1;resizeLast=0;collapsible=1;marginBottom=0;rounded=0;shadow=0;strokeWidth=1;" parent="WIyWlLk6GJQsqaUBKTNV-1" vertex="1">
          <mxGeometry x="335" y="-584" width="230" height="200" as="geometry">
            <mxRectangle x="230" y="140" width="160" height="26" as="alternateBounds" />
          </mxGeometry>
        </mxCell>
        <mxCell id="ZZ86Lt4iELvdnzls3iAt-9" value=" " style="text;align=left;verticalAlign=top;spacingLeft=4;spacingRight=4;overflow=hidden;rotatable=0;points=[[0,0.5],[1,0.5]];portConstraint=eastwest;" parent="ZZ86Lt4iELvdnzls3iAt-8" vertex="1">
          <mxGeometry y="26" width="230" height="34" as="geometry" />
        </mxCell>
        <mxCell id="ZZ86Lt4iELvdnzls3iAt-10" value="" style="line;html=1;strokeWidth=1;align=left;verticalAlign=middle;spacingTop=-1;spacingLeft=3;spacingRight=3;rotatable=0;labelPosition=right;points=[];portConstraint=eastwest;" parent="ZZ86Lt4iELvdnzls3iAt-8" vertex="1">
          <mxGeometry y="60" width="230" height="20" as="geometry" />
        </mxCell>
        <mxCell id="ZZ86Lt4iELvdnzls3iAt-11" value="+ UserUnit( filename const  : std::string)&#xa;+ Init() override  : void" style="text;align=left;verticalAlign=top;spacingLeft=4;spacingRight=4;overflow=hidden;rotatable=0;points=[[0,0.5],[1,0.5]];portConstraint=eastwest;" parent="ZZ86Lt4iELvdnzls3iAt-8" vertex="1">
          <mxGeometry y="80" width="230" height="120" as="geometry" />
        </mxCell>
        <mxCell id="ZZ86Lt4iELvdnzls3iAt-12" value="Font" style="swimlane;fontStyle=2;align=center;verticalAlign=top;childLayout=stackLayout;horizontal=1;startSize=26;horizontalStack=0;resizeParent=1;resizeLast=0;collapsible=1;marginBottom=0;rounded=0;shadow=0;strokeWidth=1;" parent="WIyWlLk6GJQsqaUBKTNV-1" vertex="1">
          <mxGeometry x="-770" y="-1120" width="320" height="350" as="geometry">
            <mxRectangle x="230" y="140" width="160" height="26" as="alternateBounds" />
          </mxGeometry>
        </mxCell>
        <mxCell id="ZZ86Lt4iELvdnzls3iAt-13" value="-font : sf::Font;&#xa;-text : sf::Text;" style="text;align=left;verticalAlign=top;spacingLeft=4;spacingRight=4;overflow=hidden;rotatable=0;points=[[0,0.5],[1,0.5]];portConstraint=eastwest;" parent="ZZ86Lt4iELvdnzls3iAt-12" vertex="1">
          <mxGeometry y="26" width="320" height="124" as="geometry" />
        </mxCell>
        <mxCell id="ZZ86Lt4iELvdnzls3iAt-14" value="" style="line;html=1;strokeWidth=1;align=left;verticalAlign=middle;spacingTop=-1;spacingLeft=3;spacingRight=3;rotatable=0;labelPosition=right;points=[];portConstraint=eastwest;" parent="ZZ86Lt4iELvdnzls3iAt-12" vertex="1">
          <mxGeometry y="150" width="320" height="20" as="geometry" />
        </mxCell>
        <mxCell id="ZZ86Lt4iELvdnzls3iAt-15" value="+Font(content const  : std::string&amp;, x : float, y: float)&#xa;+draw(target : sf::RenderTarget&amp; ) : void&#xa;&#xa;-loadFont() : void&#xa;-Init(content const  : std::string&amp;, x : float, y: float) : void&#xa;&#xa;" style="text;align=left;verticalAlign=top;spacingLeft=4;spacingRight=4;overflow=hidden;rotatable=0;points=[[0,0.5],[1,0.5]];portConstraint=eastwest;" parent="ZZ86Lt4iELvdnzls3iAt-12" vertex="1">
          <mxGeometry y="170" width="320" height="180" as="geometry" />
        </mxCell>
        <mxCell id="ZZ86Lt4iELvdnzls3iAt-22" value="" style="endArrow=none;html=1;rounded=0;entryX=0;entryY=0.111;entryDx=0;entryDy=0;entryPerimeter=0;" parent="WIyWlLk6GJQsqaUBKTNV-1" target="ZZ86Lt4iELvdnzls3iAt-11" edge="1">
          <mxGeometry width="50" height="50" relative="1" as="geometry">
            <mxPoint x="280" y="-314" as="sourcePoint" />
            <mxPoint x="300" y="-544" as="targetPoint" />
            <Array as="points">
              <mxPoint x="280" y="-491" />
            </Array>
          </mxGeometry>
        </mxCell>
        <mxCell id="ZZ86Lt4iELvdnzls3iAt-23" value="" style="endArrow=none;html=1;rounded=0;exitX=-0.006;exitY=0.349;exitDx=0;exitDy=0;exitPerimeter=0;" parent="WIyWlLk6GJQsqaUBKTNV-1" source="ZZ86Lt4iELvdnzls3iAt-7" edge="1">
          <mxGeometry width="50" height="50" relative="1" as="geometry">
            <mxPoint x="90" y="-394" as="sourcePoint" />
            <mxPoint x="280" y="-314" as="targetPoint" />
            <Array as="points">
              <mxPoint x="280" y="-192" />
            </Array>
          </mxGeometry>
        </mxCell>
        <mxCell id="ZZ86Lt4iELvdnzls3iAt-24" value="" style="endArrow=open;html=1;rounded=0;dashed=1;endFill=0;endSize=10;strokeWidth=2;exitX=0.999;exitY=0.515;exitDx=0;exitDy=0;exitPerimeter=0;" parent="WIyWlLk6GJQsqaUBKTNV-1" source="ZZ86Lt4iELvdnzls3iAt-13" edge="1">
          <mxGeometry width="50" height="50" relative="1" as="geometry">
            <mxPoint x="-440" y="-1030" as="sourcePoint" />
            <mxPoint x="-303" y="-840" as="targetPoint" />
            <Array as="points">
              <mxPoint x="-390" y="-1030" />
              <mxPoint x="-390" y="-840" />
            </Array>
          </mxGeometry>
        </mxCell>
        <mxCell id="ZZ86Lt4iELvdnzls3iAt-25" value="" style="endArrow=open;html=1;rounded=0;exitX=1;exitY=0.5;exitDx=0;exitDy=0;dashed=1;endFill=0;endSize=10;strokeWidth=2;" parent="WIyWlLk6GJQsqaUBKTNV-1" edge="1">
          <mxGeometry width="50" height="50" relative="1" as="geometry">
            <mxPoint x="-460" y="-592" as="sourcePoint" />
            <mxPoint x="-303" y="-806" as="targetPoint" />
            <Array as="points">
              <mxPoint x="-390" y="-592" />
              <mxPoint x="-390" y="-806" />
            </Array>
          </mxGeometry>
        </mxCell>
        <mxCell id="ZZ86Lt4iELvdnzls3iAt-27" value="" style="endArrow=block;html=1;rounded=0;entryX=1.021;entryY=0.271;entryDx=0;entryDy=0;entryPerimeter=0;endFill=0;endSize=11;" parent="WIyWlLk6GJQsqaUBKTNV-1" target="ZZ86Lt4iELvdnzls3iAt-3" edge="1">
          <mxGeometry width="50" height="50" relative="1" as="geometry">
            <mxPoint x="280" y="-301" as="sourcePoint" />
            <mxPoint x="540" y="-880" as="targetPoint" />
          </mxGeometry>
        </mxCell>
        <mxCell id="ZZ86Lt4iELvdnzls3iAt-28" value="" style="endArrow=diamond;html=1;rounded=0;endFill=0;endSize=10;strokeWidth=1;targetPerimeterSpacing=0;jumpSize=6;" parent="WIyWlLk6GJQsqaUBKTNV-1" edge="1">
          <mxGeometry width="50" height="50" relative="1" as="geometry">
            <mxPoint x="-10" y="-530" as="sourcePoint" />
            <mxPoint x="-10" y="-620" as="targetPoint" />
          </mxGeometry>
        </mxCell>
        <mxCell id="ZZ86Lt4iELvdnzls3iAt-30" value="Background" style="swimlane;fontStyle=2;align=center;verticalAlign=top;childLayout=stackLayout;horizontal=1;startSize=26;horizontalStack=0;resizeParent=1;resizeLast=0;collapsible=1;marginBottom=0;rounded=0;shadow=0;strokeWidth=1;" parent="WIyWlLk6GJQsqaUBKTNV-1" vertex="1">
          <mxGeometry x="-800" y="-720" width="340" height="350" as="geometry">
            <mxRectangle x="230" y="140" width="160" height="26" as="alternateBounds" />
          </mxGeometry>
        </mxCell>
        <mxCell id="ZZ86Lt4iELvdnzls3iAt-31" value="-texture : sf::Texture;&#xa;-sprite : sf::Sprite;" style="text;align=left;verticalAlign=top;spacingLeft=4;spacingRight=4;overflow=hidden;rotatable=0;points=[[0,0.5],[1,0.5]];portConstraint=eastwest;" parent="ZZ86Lt4iELvdnzls3iAt-30" vertex="1">
          <mxGeometry y="26" width="340" height="124" as="geometry" />
        </mxCell>
        <mxCell id="ZZ86Lt4iELvdnzls3iAt-32" value="" style="line;html=1;strokeWidth=1;align=left;verticalAlign=middle;spacingTop=-1;spacingLeft=3;spacingRight=3;rotatable=0;labelPosition=right;points=[];portConstraint=eastwest;" parent="ZZ86Lt4iELvdnzls3iAt-30" vertex="1">
          <mxGeometry y="150" width="340" height="20" as="geometry" />
        </mxCell>
        <mxCell id="ZZ86Lt4iELvdnzls3iAt-33" value="&#xa;+Background(filename  const : std::string&amp;, x : float, y: float)&#xa;+draw(window : sf::RenderWindow&amp;) : void&#xa;&#xa;-loadTexture(filename const : std::string&amp;) : void&#xa;-Init(x : float, y: float) : void&#xa;" style="text;align=left;verticalAlign=top;spacingLeft=4;spacingRight=4;overflow=hidden;rotatable=0;points=[[0,0.5],[1,0.5]];portConstraint=eastwest;" parent="ZZ86Lt4iELvdnzls3iAt-30" vertex="1">
          <mxGeometry y="170" width="340" height="180" as="geometry" />
        </mxCell>
      </root>
    </mxGraphModel>
  </diagram>
</mxfile>
